<?xml version="1.0" encoding="UTF-8" standalone="no"?>
<!-- Created with Inkscape (http://www.inkscape.org/) -->

<svg
   width="210mm"
   height="210mm"
   viewBox="0 0 210 210"
   version="1.1"
   id="svg1"
   xml:space="preserve"
   sodipodi:docname="howdy.svg"
   inkscape:version="1.3.2 (091e20e, 2023-11-25, custom)"
   inkscape:export-filename="StudioProjects\focus\howdy.svg"
   inkscape:export-xdpi="96"
   inkscape:export-ydpi="96"
   xmlns:inkscape="http://www.inkscape.org/namespaces/inkscape"
   xmlns:sodipodi="http://sodipodi.sourceforge.net/DTD/sodipodi-0.dtd"
   xmlns="http://www.w3.org/2000/svg"
   xmlns:svg="http://www.w3.org/2000/svg"><sodipodi:namedview
     id="namedview1"
     pagecolor="#ffffff"
     bordercolor="#000000"
     borderopacity="0.25"
     inkscape:showpageshadow="2"
     inkscape:pageopacity="0.0"
     inkscape:pagecheckerboard="0"
     inkscape:deskcolor="#d1d1d1"
     inkscape:document-units="mm"
     inkscape:zoom="0.69219276"
     inkscape:cx="317.1082"
     inkscape:cy="457.24257"
     inkscape:window-width="1920"
     inkscape:window-height="991"
     inkscape:window-x="-9"
     inkscape:window-y="-9"
     inkscape:window-maximized="1"
     inkscape:current-layer="layer1" /><defs
     id="defs1" /><g
     inkscape:label="Layer 1"
     inkscape:groupmode="layer"
     id="layer1"><rect
       style="fill:#0fa549;fill-opacity:0;stroke-width:0.264583"
       id="rect1"
       width="235.07722"
       height="229.34363"
       x="-12.23166"
       y="-8.4092665" /><path
       style="fill:#ffffff;fill-opacity:1"
       d="m 36.201048,150.69955 c 0,-0.13256 1.070232,-4.81476 2.378292,-10.4049 l 2.378293,-10.16388 -0.003,-32.041715 c -0.0026,-27.594237 0.02746,-32.216222 0.216266,-33.298927 1.365705,-7.831534 7.368683,-13.842395 15.18561,-15.205553 1.108289,-0.19327 7.46258,-0.221491 49.871101,-0.221491 42.40852,0 48.76281,0.02822 49.8711,0.221491 4.61008,0.803931 8.7851,3.305859 11.52652,6.907409 1.90496,2.502644 2.89844,4.675751 3.61207,7.900885 l 0.33856,1.530054 v 31.485972 c 0,25.660965 -0.0368,31.692045 -0.19899,32.599865 -0.77264,4.32514 -2.55145,7.74469 -5.51005,10.59238 -2.5666,2.47038 -5.51327,4.03788 -9.18413,4.88555 l -1.44389,0.33343 -49.16533,0.037 -49.165331,0.037 -10.16791,2.45854 c -5.592351,1.3522 -10.251453,2.48766 -10.353559,2.52324 -0.102107,0.0356 -0.185649,-0.0438 -0.185649,-0.17634 z m 55.397494,-26.36826 v -10.13303 l -0.355252,0.36792 c -0.452557,0.4687 -10.345064,11.70082 -11.20705,12.72468 -0.355396,0.42213 -0.856646,0.86711 -1.113891,0.98884 -0.516192,0.24427 -4.110155,0.49821 -4.756207,0.33606 -0.63246,-0.15874 -0.810525,-0.74006 -0.919943,-3.0033 l -0.0998,-2.06427 0.500594,-0.69035 c 0.275326,-0.37969 1.447529,-1.74978 2.604895,-3.04463 1.157366,-1.29486 4.165699,-4.69136 6.685184,-7.54778 2.519485,-2.85642 4.751768,-5.28941 4.96063,-5.40664 0.579354,-0.32518 1.008264,-0.13024 2.376482,1.0801 l 1.250096,1.10585 0.04233,-1.47375 0.04232,-1.47375 h 10.01982 10.01982 v 14.18354 14.18354 h 11.0639 11.0639 l 0.0379,-14.19022 0.0379,-14.19023 6.43679,5.21623 c 3.54024,2.86893 6.46446,5.18857 6.49827,5.15477 0.0338,-0.0338 0.0445,-8.55586 0.0238,-18.937893 l -0.0377,-18.876426 -6.38631,5.184889 c -3.51247,2.851689 -6.43643,5.186522 -6.49769,5.188518 -0.0613,0.002 -0.11139,-6.378964 -0.11139,-14.179911 V 60.650508 h -11.06465 -11.06465 v 14.183539 14.18354 H 101.62356 91.598542 V 74.834047 60.650508 H 80.533895 69.469248 V 97.557414 134.46432 H 80.533895 91.598542 Z M 115.8071,123.1769 v -2.67334 h 6.90612 6.90612 v 2.67334 2.67333 h -6.90612 -6.90612 z m 0.099,-7.52495 c -0.0545,-0.0545 -0.099,-1.29088 -0.099,-2.7476 v -2.64858 h 6.90612 6.90612 v 2.74759 2.7476 h -6.80711 c -3.74391,0 -6.85166,-0.0446 -6.90612,-0.099 z m -13.28109,-10.1721 c -0.14242,-0.14242 -0.18461,-1.95849 -0.18461,-7.946914 0,-7.382748 0.0134,-7.76945 0.27303,-7.908424 0.15016,-0.08037 0.41807,-0.108188 0.59535,-0.06183 l 0.32233,0.08429 -0.0384,7.965225 -0.0384,7.965233 -0.37234,0.0435 c -0.20479,0.0239 -0.45541,-0.0396 -0.55694,-0.14109 z m 13.18208,-2.79854 v -2.67334 h 6.90612 6.90612 v 2.67334 2.67334 h -6.90612 -6.90612 z m -17.426202,1.83173 c -0.05446,-0.0545 -0.09901,-3.19435 -0.09901,-6.977549 v -6.878539 l 0.373225,-0.09367 c 0.827264,-0.20763 0.814925,-0.312505 0.814925,6.925915 0,3.659153 -0.04057,6.758723 -0.09015,6.887933 -0.08956,0.23338 -0.804282,0.33062 -0.998988,0.13591 z m 5.616362,-0.0772 c -0.0412,-0.10732 -0.0574,-3.26947 -0.0361,-7.026995 l 0.0387,-6.831862 0.38401,-0.04464 c 0.2112,-0.02455 0.46251,0.04995 0.55845,0.165558 0.12927,0.155752 0.16444,1.975332 0.13581,7.025019 l -0.0386,6.81482 -0.48371,0.0466 c -0.29897,0.0288 -0.51228,-0.0279 -0.55852,-0.14852 z m 1.44961,-0.58975 c -0.14113,-0.14114 -0.18407,-1.60275 -0.18233,-6.207041 0.001,-3.312339 0.0586,-6.111328 0.12751,-6.219976 0.0711,-0.1122 0.31075,-0.176362 0.55467,-0.148518 l 0.42944,0.04902 v 6.312046 6.312049 l -0.37234,0.0435 c -0.20479,0.0239 -0.45542,-0.0396 -0.55695,-0.14109 z m -4.24412,-0.0757 c -0.0544,-0.0545 -0.099,-2.82569 -0.099,-6.158304 0,-5.620816 0.0188,-6.068963 0.25991,-6.192965 0.28824,-0.148245 0.64738,-0.06773 0.81458,0.182623 0.17539,0.262619 0.1373,11.648946 -0.0401,11.980386 -0.14784,0.27623 -0.73021,0.39344 -0.9354,0.18826 z m -4.146144,-0.20992 c -0.240578,-0.14013 -0.259908,-0.58694 -0.259908,-6.007666 v -5.856281 l 0.370965,-0.09311 c 0.848168,-0.212877 0.817185,-0.440649 0.817185,6.007645 0,5.269942 -0.02613,5.939552 -0.234925,6.019672 -0.307347,0.11794 -0.383425,0.11023 -0.693317,-0.0703 z m 9.758344,-1.06607 c -0.0394,-0.10277 -0.054,-2.3584 -0.0325,-5.012512 l 0.0392,-4.825652 0.42944,-0.04902 c 0.24392,-0.02784 0.48355,0.03632 0.55468,0.148519 0.20776,0.327726 0.16199,9.536855 -0.0485,9.747295 -0.23443,0.23443 -0.85133,0.22878 -0.94243,-0.009 z m -11.255908,-0.2092 c -0.05446,-0.0545 -0.09901,-2.19185 -0.09901,-4.749769 v -4.650758 l 0.373226,-0.09367 c 0.801009,-0.20104 0.814924,-0.119852 0.814924,4.754837 0,3.28792 -0.04748,4.52941 -0.178222,4.66015 -0.192111,0.19211 -0.749543,0.24058 -0.910915,0.0792 z m 4.213256,-0.18826 c -0.199554,-0.37287 -0.207568,-8.462945 -0.0089,-8.98548 0.15419,-0.405551 0.565812,-0.502018 0.865082,-0.202742 0.13062,0.130621 0.17822,1.357072 0.17822,4.591933 0,2.427542 -0.0406,4.519429 -0.0901,4.648639 -0.12628,0.32906 -0.758905,0.29399 -0.944261,-0.0524 z m -5.619234,-2.564287 c -0.118268,-0.118268 -0.178222,-0.761655 -0.178222,-1.912558 0,-1.869696 0.101023,-2.137069 0.771548,-2.042015 0.333707,0.04731 0.343398,0.09483 0.384174,1.884132 0.04307,1.88986 -0.04471,2.248664 -0.550129,2.248664 -0.137031,0 -0.329348,-0.0802 -0.427371,-0.178223 z m 14.112076,0.05293 c -0.14233,-0.09032 -0.17975,-0.604274 -0.14852,-2.039858 0.0408,-1.876545 0.0494,-1.920195 0.3841,-1.967649 0.66242,-0.09391 0.77155,0.179496 0.77155,1.932964 0,0.893906 -0.0692,1.754558 -0.15374,1.912558 -0.16021,0.299345 -0.52715,0.368997 -0.85339,0.161985 z M 92.701854,99.06859 c -0.04153,-0.108235 -0.05614,-0.826694 -0.03247,-1.596577 l 0.04305,-1.399786 0.429441,-0.04902 c 0.243917,-0.02784 0.483542,0.03632 0.554671,0.148519 0.178347,0.281328 0.159714,2.463174 -0.02397,2.806383 -0.175758,0.328406 -0.855125,0.391732 -0.970725,0.09048 z m 16.897156,0.01857 c -0.20571,-0.205715 -0.24557,-2.604476 -0.0484,-2.915434 0.0711,-0.112201 0.31075,-0.176363 0.55467,-0.148519 l 0.42944,0.04902 0.0438,1.262409 c 0.0555,1.599095 -0.0239,1.930744 -0.4625,1.930744 -0.18632,0 -0.41896,-0.0802 -0.51699,-0.178223 z m 6.20809,-6.653639 V 89.76018 h 6.90612 6.90612 v 2.673338 2.673337 h -6.90612 -6.90612 z M 73.483447,93.90483 c -0.456008,-0.185631 -0.593083,-0.393993 -0.595993,-0.905945 -0.0049,-0.864554 -0.02403,-0.862405 7.668708,-0.862405 h 7.010814 l 0.307818,0.391326 c 0.380678,0.483954 0.384663,0.66898 0.02401,1.114538 l -0.28381,0.35062 -6.88222,0.03065 c -4.347347,0.01936 -7.017432,-0.02439 -7.249324,-0.118787 z m -0.268184,-3.633256 c -0.389296,-0.272673 -0.443839,-0.970497 -0.102531,-1.311804 0.125154,-0.125154 0.442612,-0.266744 0.705464,-0.314646 0.262851,-0.0479 3.474656,-0.06723 7.137343,-0.04296 l 6.659431,0.04413 0.283821,0.350621 c 0.374951,0.4632 0.35802,0.702571 -0.08073,1.141317 l -0.364546,0.364546 H 80.49943 c -6.053618,0 -6.996828,-0.02994 -7.28417,-0.2312 z m -0.08429,-3.604852 c -0.324617,-0.358697 -0.312374,-0.958778 0.02581,-1.264826 0.244721,-0.221469 0.971263,-0.245796 7.340898,-0.245796 h 7.069296 l 0.310419,0.394633 c 0.336977,0.428397 0.295522,0.883589 -0.109464,1.201943 -0.181428,0.142618 -1.876636,0.185648 -7.313663,0.185648 -6.667945,0 -7.091719,-0.01572 -7.323292,-0.271602 z M 115.8071,82.185725 v -2.673337 h 6.90612 6.90612 v 2.673337 2.673337 h -6.90612 -6.90612 z m -42.624883,1.039631 c -0.545369,-0.545369 -0.284743,-1.372484 0.493071,-1.564795 0.17808,-0.04403 3.387358,-0.06084 7.131729,-0.03735 l 6.807947,0.0427 0.283823,0.350621 c 0.374955,0.4632 0.358025,0.70257 -0.08072,1.141318 l -0.364546,0.364545 h -6.987132 c -6.789107,0 -6.99555,-0.0084 -7.284169,-0.297037 z m -0.05124,-3.539014 c -0.324617,-0.358698 -0.312374,-0.958778 0.02581,-1.264826 0.244768,-0.221513 0.96743,-0.245572 7.314548,-0.243523 3.87362,0.0013 7.116483,0.05138 7.206361,0.111389 0.363543,0.242744 0.522603,0.763716 0.339392,1.111617 -0.09679,0.183792 -0.249514,0.383268 -0.339392,0.443282 -0.08988,0.06001 -3.344353,0.110138 -7.232167,0.111389 -6.661108,0.0021 -7.082926,-0.01339 -7.314548,-0.269328 z m 42.676123,-7.74841 v -2.673337 h 6.90612 6.90612 v 2.673337 2.673337 h -6.90612 -6.90612 z M 78.603151,125.17458 c 0.408427,-0.47238 2.402348,-2.73581 4.430937,-5.02986 2.028589,-2.29404 3.75028,-4.28491 3.825981,-4.42416 0.108277,-0.19917 -0.0093,-0.39398 -0.551219,-0.91326 -0.378872,-0.36305 -0.854588,-0.74878 -1.057148,-0.85719 -0.338826,-0.18133 -0.398269,-0.16174 -0.742999,0.24493 -0.206089,0.24312 -2.053565,2.33881 -4.105502,4.6571 -5.098741,5.76058 -4.696165,5.21447 -4.696165,6.37062 v 0.96442 l 1.07676,-0.0769 1.076761,-0.0769 z m 10.813146,-12.23324 c 0.860564,-0.95254 1.037707,-1.28694 0.858808,-1.62122 -0.172783,-0.32285 -1.645176,-1.54253 -1.78296,-1.47695 -0.318366,0.15154 -1.803992,1.91115 -1.723513,2.04137 0.147574,0.23878 1.854842,1.63864 1.998482,1.63864 0.06794,0 0.360072,-0.26183 0.649183,-0.58184 z"
       id="path1" /></g></svg>
