<?xml version="1.0" encoding="UTF-8" standalone="no"?>
<svg
   viewBox="0 0 303 172"
   width="360"
   preserveAspectRatio="xMidYMid meet"
   class=""
   fill="none"
   version="1.1"
   id="svg13"
   sodipodi:docname="intro.svg"
   inkscape:version="1.3.2 (091e20e, 2023-11-25)"
   xmlns:inkscape="http://www.inkscape.org/namespaces/inkscape"
   xmlns:sodipodi="http://sodipodi.sourceforge.net/DTD/sodipodi-0.dtd"
   xmlns="http://www.w3.org/2000/svg"
   xmlns:svg="http://www.w3.org/2000/svg">
  <defs
     id="defs13" />
  <sodipodi:namedview
     id="namedview13"
     pagecolor="#ffffff"
     bordercolor="#000000"
     borderopacity="0.25"
     inkscape:showpageshadow="2"
     inkscape:pageopacity="0.0"
     inkscape:pagecheckerboard="0"
     inkscape:deskcolor="#d1d1d1"
     inkscape:zoom="1.4201061"
     inkscape:cx="77.459001"
     inkscape:cy="129.91987"
     inkscape:window-width="1920"
     inkscape:window-height="974"
     inkscape:window-x="0"
     inkscape:window-y="25"
     inkscape:window-maximized="1"
     inkscape:current-layer="svg13" />
  <title
     id="title1">intro-md-beta-logo-dark</title>
  <path
     fill-rule="evenodd"
     clip-rule="evenodd"
     d="M229.565 160.229C262.212 149.245 286.931 118.241 283.39 73.4194C278.009 5.31929 212.365 -11.5738 171.472 8.48673C115.998 35.6999 108.972 40.1612 69.2388 40.1612C39.645 40.1612 9.51317 54.4147 5.74669 92.952C3.01662 120.885 13.9985 145.267 54.6373 157.716C128.599 180.373 198.017 170.844 229.565 160.229Z"
     fill="#364147"
     id="path1"
     style="fill:#78efff;fill-opacity:0.19879521" />
  <path
     fill-rule="evenodd"
     clip-rule="evenodd"
     d="m 124.12012,57.73888 c 0.004,0 0.007,0 0.01,0 6.261,0 11.336,-5.2635 11.336,-11.7563 0,-6.4928 -5.075,-11.7562 -11.336,-11.7562 -5.081,0 -9.381,3.4661 -10.822,8.2426 -0.755,-0.2627 -1.564,-0.4051 -2.404,-0.4051 -4.174,0 -7.558,3.509 -7.558,7.8375 0,4.3285 3.384,7.8375 7.558,7.8375 0.004,0 0.008,0 0.013,0 z"
     fill="#F1F1F2"
     fill-opacity="0.38"
     id="path2"
     style="fill:#9a9aa2;fill-opacity:0.38" />
  <path
     fill-rule="evenodd"
     clip-rule="evenodd"
     d="M105.682 128.716C109.186 128.716 112.026 125.908 112.026 122.446C112.026 118.983 109.186 116.176 105.682 116.176C104.526 116.176 103.442 116.481 102.509 117.015L102.509 116.959C102.509 110.467 97.1831 105.203 90.6129 105.203C85.3224 105.203 80.8385 108.616 79.2925 113.335C78.6052 113.143 77.88 113.041 77.1304 113.041C72.7503 113.041 69.1995 116.55 69.1995 120.878C69.1995 125.207 72.7503 128.716 77.1304 128.716C77.1341 128.716 77.1379 128.716 77.1416 128.716H105.682L105.682 128.716Z"
     fill="#F1F1F2"
     fill-opacity="0.38"
     id="path3"
     style="fill:#afafaf;fill-opacity:0.38000003" />
  <rect
     x="-15.20404"
     y="53.587212"
     width="50.579704"
     height="100.068"
     rx="7.5000005"
     transform="matrix(0.96272332,-0.27048811,0.27108918,0.96255424,0,0)"
     fill="#42CBA5"
     stroke="#316474"
     id="rect3"
     style="fill:#31bc16;fill-opacity:1" />
  <rect
     x="-15.21532"
     y="49.907772"
     width="50.402702"
     height="99.721603"
     rx="7.5000005"
     transform="matrix(0.96272332,-0.27048811,0.27108918,0.96255424,0,0)"
     fill="#eefaf6"
     stroke="#316474"
     id="rect4" />
  <path
     d="m 46.357407,47.45884 22.356738,79.38186 c 0.823428,2.92369 -0.87956,5.96024 -3.804146,6.78144 l -31.915176,8.96715 c -2.92451,0.82117 -5.962517,-0.88253 -6.785917,-3.80624 L 3.8521585,59.401198 c -0.8234093,-2.923921 0.87969,-5.960192 3.804035,-6.781725 l 5.0906495,-1.430297 21.733942,-6.106367 5.090649,-1.430296 c 2.924401,-0.821663 5.962508,0.882536 6.785973,3.806327 z"
     fill="#dff3ed"
     stroke="#316474"
     id="path4" />
  <path
     d="m 36.516174,106.47812 c 0.831632,-0.24258 1.67605,-0.47088 2.51807,-0.70791 -0.584021,-2.11168 -1.178817,-4.23016 -1.779243,-6.337362 l -2.526263,0.710312 c 0.584057,2.11178 1.170438,4.2321 1.787436,6.33496 z m -6.088448,-7.917852 1.430235,-2.542651 2.545167,1.424931 0.715137,-1.27128 -2.545574,-1.425951 1.431238,-2.542834 -1.272119,-0.71265 -1.431201,2.542927 -2.544071,-1.42515 -0.716195,1.271592 2.545223,1.4248 -1.430888,2.543986 z m 1.19557,5.212652 c 0.361408,1.25586 0.714715,2.51408 1.059865,3.77478 0.854807,-0.22274 1.692215,-0.47623 2.544901,-0.70674 -0.348102,-1.27138 -0.710525,-2.53059 -1.066746,-3.79938 -0.850232,0.23911 -1.709816,0.44525 -2.53802,0.73134 z M 44.011133,89.334412 c 1.304971,4.647919 2.599312,9.289946 3.9129,13.936808 0.847797,-0.24794 1.694705,-0.46754 2.540382,-0.72324 -1.310969,-4.637572 -2.611291,-9.268937 -3.905946,-13.912027 -0.855965,0.187367 -1.694668,0.467633 -2.547336,0.698459 z m -2.975998,4.055251 c 1.033197,3.648495 2.041739,7.303997 3.083185,10.949967 0.841927,-0.237 1.681826,-0.48179 2.517976,-0.70788 -1.031239,-3.799942 -2.131129,-7.590655 -3.17896,-11.386043 -0.849947,0.176794 -1.675846,0.471122 -2.518969,0.672645 0.01944,0.159512 0.05179,0.317118 0.09677,0.471311 z m -3.19731,3.140469 c 0.01915,0.163392 0.06536,0.327969 0.109296,0.484406 0.794954,2.79964 1.562891,5.598182 2.366039,8.395422 l 2.526244,-0.71008 c -0.261256,-0.99382 -0.553091,-1.97009 -0.822337,-2.96073 -0.569534,-1.965162 -1.083556,-3.954442 -1.678041,-5.91334 -0.831262,0.243512 -1.665051,0.478237 -2.501201,0.704322 z"
     fill="#316474"
     id="path5" />
  <path
     d="m 20.028741,54.433501 c 0.234066,0.829961 1.080599,1.33232 1.920051,1.159771 0.0368,-0.0076 8.138568,-2.249978 8.175284,-2.260158 0.878914,-0.24384 1.396907,-1.157423 1.151333,-2.028223 -0.244337,-0.866342 -1.155999,-1.375745 -2.030356,-1.133159 -0.112088,0.0311 -8.283284,2.306638 -8.382797,2.358038 -0.680802,0.35166 -1.047802,1.143906 -0.833515,1.903734 z"
     fill="#ffffff"
     stroke="#316474"
     id="path6"
     sodipodi:nodetypes="ssscssss" />
  <path
     d="m 214.04027,139.28166 -33.50076,-5.47546 c -0.29074,-0.048 -0.52098,-0.14344 -0.65807,-0.23743 -0.0365,-0.024 -0.0612,-0.0453 -0.077,-0.0613 l 1.62028,-9.93539 c 0.0207,-0.01 0.0504,-0.022 0.0922,-0.0337 0.15972,-0.0455 0.40812,-0.0619 0.69909,-0.0149 l 33.50076,5.47546 c 0.29074,0.048 0.52099,0.14344 0.65807,0.23742 0.0362,0.025 0.0603,0.045 0.076,0.0611 l -1.61931,9.93563 c -0.0207,0.009 -0.0504,0.022 -0.0922,0.0337 -0.15973,0.0455 -0.40836,0.0629 -0.6991,0.0149 z"
     fill="#ffffff"
     stroke="#316474"
     id="path7" />
  <path
     d="M 267.10544,140.49801 129.7215,118.04114 c -2.83925,-0.46424 -4.77686,-3.14365 -4.31491,-5.97318 l 14.34362,-87.961584 c 0.46093,-2.829559 3.14739,-4.753483 5.98864,-4.288973 L 283.12297,42.27349 c 2.84321,0.464872 4.77681,3.143852 4.31588,5.97341 l -14.34461,87.96146 c -0.46098,2.82975 -3.1464,4.75361 -5.9888,4.28965 z"
     fill="#eefaf6"
     id="path8" />
  <path
     d="m 129.7215,118.04114 c -2.83925,-0.46424 -4.77686,-3.14365 -4.31491,-5.97318 l 14.34362,-87.961584 c 0.46093,-2.829559 3.14739,-4.753483 5.98864,-4.288973 L 283.12297,42.27349 c 2.84324,0.464774 4.77681,3.143852 4.31588,5.97341 l -14.34461,87.96146 c -0.46098,2.82975 -3.1464,4.75361 -5.9888,4.28965"
     stroke="#316474"
     id="path9" />
  <path
     d="M 263.05575,135.15146 134.56053,114.14812 c -2.39805,-0.39203 -4.01785,-2.59371 -3.64495,-4.88018 l 13.04536,-79.996797 c 0.37275,-2.285879 2.60641,-3.858269 5.00546,-3.466114 l 128.49524,21.003244 c 2.40102,0.392518 4.01775,2.5941 3.64498,4.880077 l -13.04534,79.9967 c -0.3729,2.28647 -2.60456,3.85912 -5.00553,3.46641 z"
     fill="#dff3ed"
     stroke="#316474"
     id="path10" />
  <path
     d="m 214.01429,132.38344 67.76021,11.07542 -0.9678,5.93227 c -0.12577,0.77277 -0.4347,1.41602 -0.80604,1.83599 -0.37758,0.42466 -0.76136,0.56633 -1.07007,0.51611 L 115.66545,125.0565 c -0.30872,-0.0502 -0.62723,-0.30721 -0.8491,-0.83011 -0.21936,-0.51615 -0.30812,-1.22445 -0.18235,-1.99721 l 0.9678,-5.93227 67.76095,11.07663 c 0.0727,0.82882 0.29411,1.59308 0.65279,2.20682 0.41897,0.71529 1.04669,1.25995 1.85496,1.39205 l 24.62274,4.02446 c 0.80827,0.13209 1.57515,-0.18327 2.19999,-0.72838 0.53444,-0.46677 0.98876,-1.12094 1.32106,-1.88505 z"
     fill="#42CBA5"
     stroke="#316474"
     id="path11"
     style="fill:#31bc16;fill-opacity:1" />
  <path
     d="m 214.38977,131.52778 69.16014,11.30394 -0.59284,3.63704 c -0.13411,0.82115 -0.91012,1.37991 -1.73516,1.24489 L 114.75046,120.5028 c -0.82407,-0.13479 -1.38283,-0.9108 -1.24873,-1.73195 l 0.59284,-3.63704 69.16111,11.30416 c 0.31017,1.25061 1.32791,2.26743 2.68822,2.48967 l 25.10649,4.10364 c 1.35934,0.22201 2.6473,-0.41635 3.33938,-1.5035 z"
     fill="#eefaf6"
     stroke="#316474"
     id="path12" />
  <ellipse
     rx="15.996899"
     ry="15.9971"
     transform="matrix(0.98690302,0.16131466,-0.16094613,0.98696319,0,0)"
     fill="#42CBA5"
     stroke="#316474"
     id="ellipse12"
     style="fill:#31bc16;fill-opacity:1"
     cx="216.28624"
     cy="48.462101" />
  <path
     d="m 202.42838,85.613636 -2.68462,-3.458832 c 7e-5,-2.92e-4 -8.4e-4,-8.13e-4 -7.5e-4,-0.0012 -0.64383,-0.837893 -1.84982,-1.008732 -2.69964,-0.380969 -0.85503,0.632393 -1.02322,1.833255 -0.37578,2.67765 l 0.002,0.0018 3.99769,5.166298 c -7e-5,2.92e-4 -1.2e-4,4.86e-4 -1.8e-4,7.78e-4 0.69885,0.909539 2.04214,1.021013 2.87618,0.233664 l 10.62931,-10.037296 c 0.7734,-0.730656 0.79229,-1.943208 0.0491,-2.703954 -0.73911,-0.756289 -1.95771,-0.786567 -2.72591,-0.06054 z"
     fill="#ffffff"
     stroke="#316474"
     id="path13" />
</svg>
